<svg width="128" height="128" viewBox="0 0 128 128" fill="none" xmlns="http://www.w3.org/2000/svg">
<circle cx="64" cy="64" r="63" fill="black" stroke="#575757" stroke-width="2" stroke-linecap="round" stroke-linejoin="round"/>
<g filter="url(#filter0_i_102_10)">
<path d="M61.8618 72.6631V78.9717H18.1997V74.4478L45.2603 32.5703H51.5273L44.8037 44.6895L26.9155 72.6631H61.8618ZM53.4365 32.5703V93H45.7583V32.5703H53.4365ZM106.769 57.9707V67.1846C106.769 72.1374 106.326 76.3154 105.441 79.7188C104.556 83.1221 103.283 85.8613 101.623 87.9365C99.9624 90.0117 97.9564 91.5197 95.6045 92.4604C93.2803 93.3735 90.6517 93.8301 87.7188 93.8301C85.3945 93.8301 83.2502 93.5396 81.2856 92.9585C79.3211 92.3774 77.5503 91.4505 75.9731 90.1777C74.4237 88.8773 73.0955 87.1895 71.9888 85.1143C70.882 83.0391 70.0381 80.5212 69.457 77.5605C68.876 74.5999 68.5854 71.1413 68.5854 67.1846V57.9707C68.5854 53.0179 69.0282 48.8675 69.9136 45.5195C70.8267 42.1715 72.1133 39.4876 73.7734 37.4678C75.4336 35.4202 77.4258 33.9538 79.75 33.0684C82.1019 32.1829 84.7305 31.7402 87.6357 31.7402C89.9876 31.7402 92.1458 32.0308 94.1104 32.6118C96.1025 33.1652 97.8734 34.0645 99.4229 35.3096C100.972 36.527 102.287 38.1595 103.366 40.207C104.472 42.2269 105.316 44.7033 105.897 47.6362C106.479 50.5692 106.769 54.014 106.769 57.9707ZM99.0493 68.4297V56.6841C99.0493 53.9725 98.8833 51.5929 98.5513 49.5454C98.2469 47.4702 97.7904 45.6994 97.1816 44.2329C96.5729 42.7664 95.7982 41.5767 94.8574 40.6636C93.9443 39.7505 92.8791 39.0864 91.6616 38.6714C90.4718 38.2287 89.1299 38.0073 87.6357 38.0073C85.8096 38.0073 84.1909 38.3532 82.7798 39.0449C81.3687 39.709 80.1789 40.7743 79.2104 42.2407C78.2697 43.7072 77.5503 45.6302 77.0522 48.0098C76.5542 50.3893 76.3052 53.2808 76.3052 56.6841V68.4297C76.3052 71.1413 76.4574 73.5347 76.7617 75.6099C77.0938 77.6851 77.578 79.4836 78.2144 81.0054C78.8507 82.4995 79.6255 83.7308 80.5386 84.6992C81.4517 85.6676 82.5031 86.387 83.6929 86.8574C84.9103 87.3001 86.2523 87.5215 87.7188 87.5215C89.6003 87.5215 91.2466 87.1618 92.6577 86.4424C94.0688 85.723 95.2448 84.6024 96.1855 83.0806C97.154 81.5311 97.8734 79.5527 98.3438 77.1455C98.8141 74.7106 99.0493 71.8053 99.0493 68.4297Z" fill="url(#paint0_linear_102_10)"/>
</g>
<path d="M61.8618 72.6631H62.8618V71.6631H61.8618V72.6631ZM61.8618 78.9717V79.9717H62.8618V78.9717H61.8618ZM18.1997 78.9717H17.1997V79.9717H18.1997V78.9717ZM18.1997 74.4478L17.3598 73.905L17.1997 74.1528V74.4478H18.1997ZM45.2603 32.5703V31.5703H44.7158L44.4203 32.0276L45.2603 32.5703ZM51.5273 32.5703L52.4018 33.0554L53.2257 31.5703H51.5273V32.5703ZM44.8037 44.6895L45.6462 45.2282L45.663 45.2019L45.6782 45.1746L44.8037 44.6895ZM26.9155 72.6631L26.0731 72.1244L25.0891 73.6631H26.9155V72.6631ZM53.4365 32.5703H54.4365V31.5703H53.4365V32.5703ZM53.4365 93V94H54.4365V93H53.4365ZM45.7583 93H44.7583V94H45.7583V93ZM45.7583 32.5703V31.5703H44.7583V32.5703H45.7583ZM60.8618 72.6631V78.9717H62.8618V72.6631H60.8618ZM61.8618 77.9717H18.1997V79.9717H61.8618V77.9717ZM19.1997 78.9717V74.4478H17.1997V78.9717H19.1997ZM19.0396 74.9905L46.1002 33.113L44.4203 32.0276L17.3598 73.905L19.0396 74.9905ZM45.2603 33.5703H51.5273V31.5703H45.2603V33.5703ZM50.6529 32.0852L43.9293 44.2043L45.6782 45.1746L52.4018 33.0554L50.6529 32.0852ZM43.9612 44.1507L26.0731 72.1244L27.758 73.2018L45.6462 45.2282L43.9612 44.1507ZM26.9155 73.6631H61.8618V71.6631H26.9155V73.6631ZM52.4365 32.5703V93H54.4365V32.5703H52.4365ZM53.4365 92H45.7583V94H53.4365V92ZM46.7583 93V32.5703H44.7583V93H46.7583ZM45.7583 33.5703H53.4365V31.5703H45.7583V33.5703ZM105.441 79.7188L106.409 79.9705L105.441 79.7188ZM95.6045 92.4604L95.9702 93.3912L95.9759 93.3889L95.6045 92.4604ZM75.9731 90.1777L75.3303 90.9437L75.3376 90.9499L75.3451 90.9559L75.9731 90.1777ZM69.9136 45.5195L68.9488 45.2564L68.9468 45.2639L69.9136 45.5195ZM73.7734 37.4678L74.546 38.1028L74.5502 38.0976L73.7734 37.4678ZM79.75 33.0684L79.3977 32.1325L79.394 32.1339L79.75 33.0684ZM94.1104 32.6118L93.8267 33.5708L93.8347 33.5731L93.8427 33.5753L94.1104 32.6118ZM99.4229 35.3096L98.7964 36.0891L98.805 36.0959L99.4229 35.3096ZM103.366 40.207L102.481 40.6733L102.485 40.6804L102.489 40.6876L103.366 40.207ZM105.897 47.6362L104.917 47.8306L105.897 47.6362ZM98.5513 49.5454L97.5619 49.6905L97.563 49.698L97.5642 49.7055L98.5513 49.5454ZM94.8574 40.6636L94.1503 41.3707L94.1556 41.376L94.1609 41.3812L94.8574 40.6636ZM91.6616 38.6714L91.3129 39.6086L91.3259 39.6134L91.3389 39.6179L91.6616 38.6714ZM82.7798 39.0449L83.2056 39.9497L83.2128 39.9463L83.2199 39.9428L82.7798 39.0449ZM79.2104 42.2407L78.3759 41.6896L78.3688 41.7008L79.2104 42.2407ZM76.7617 75.6099L75.7722 75.755L75.7743 75.7679L76.7617 75.6099ZM78.2144 81.0054L77.2918 81.3912L77.2943 81.3972L78.2144 81.0054ZM80.5386 84.6992L79.811 85.3852L80.5386 84.6992ZM83.6929 86.8574L83.3252 87.7874L83.3381 87.7925L83.3511 87.7972L83.6929 86.8574ZM96.1855 83.0806L95.3375 82.5506L95.335 82.5547L96.1855 83.0806ZM98.3438 77.1455L99.3252 77.3373L99.3256 77.3352L98.3438 77.1455ZM105.769 57.9707V67.1846H107.769V57.9707H105.769ZM105.769 67.1846C105.769 72.084 105.33 76.1717 104.473 79.467L106.409 79.9705C107.322 76.4592 107.769 72.1907 107.769 67.1846H105.769ZM104.473 79.467C103.612 82.7761 102.391 85.3758 100.842 87.3118L102.403 88.5612C104.175 86.3469 105.499 83.4681 106.409 79.9705L104.473 79.467ZM100.842 87.3118C99.284 89.259 97.4165 90.6586 95.2331 91.532L95.9759 93.3889C98.4962 92.3808 100.641 90.7645 102.403 88.5612L100.842 87.3118ZM95.2388 91.5297C93.0495 92.3898 90.548 92.8301 87.7188 92.8301V94.8301C90.7554 94.8301 93.511 94.3573 95.9701 93.3912L95.2388 91.5297ZM87.7188 92.8301C85.4779 92.8301 83.4303 92.55 81.5693 91.9996L81.002 93.9174C83.07 94.5291 85.3112 94.8301 87.7188 94.8301V92.8301ZM81.5693 91.9996C79.7289 91.4552 78.0753 90.5892 76.6012 89.3995L75.3451 90.9559C77.0253 92.3118 78.9134 93.2997 81.002 93.9174L81.5693 91.9996ZM76.616 89.4118C75.1791 88.2058 73.9274 86.6241 72.8711 84.6437L71.1064 85.5848C72.2637 87.7548 73.6682 89.5488 75.3303 90.9437L76.616 89.4118ZM72.8711 84.6437C71.8219 82.6764 71.0054 80.2575 70.4383 77.368L68.4758 77.7531C69.0708 80.7848 69.9421 83.4018 71.1064 85.5848L72.8711 84.6437ZM70.4383 77.368C69.8729 74.4868 69.5854 71.0954 69.5854 67.1846H67.5854C67.5854 71.1872 67.8791 74.713 68.4758 77.7531L70.4383 77.368ZM69.5854 67.1846V57.9707H67.5854V67.1846H69.5854ZM69.5854 57.9707C69.5854 53.0705 70.0242 49.0125 70.8803 45.7752L68.9468 45.2639C68.0321 48.7225 67.5854 52.9653 67.5854 57.9707H69.5854ZM70.8783 45.7826C71.7659 42.5284 72.9996 39.9841 74.546 38.1027L73.0009 36.8328C71.2269 38.9911 69.8875 41.8147 68.9488 45.2564L70.8783 45.7826ZM74.5502 38.0976C76.1063 36.1784 77.9564 34.8218 80.106 34.0028L79.394 32.1339C76.8952 33.0858 74.7609 34.6621 72.9967 36.838L74.5502 38.0976ZM80.1023 34.0042C82.3255 33.1673 84.8323 32.7402 87.6357 32.7402V30.7402C84.6286 30.7402 81.8783 31.1986 79.3977 32.1325L80.1023 34.0042ZM87.6357 32.7402C89.9055 32.7402 91.9667 33.0206 93.8267 33.5708L94.394 31.6529C92.3249 31.0409 90.0698 30.7402 87.6357 30.7402V32.7402ZM93.8427 33.5753C95.7094 34.0939 97.3571 34.9324 98.7965 36.0891L100.049 34.5301C98.3897 33.1965 96.4957 32.2365 94.378 31.6483L93.8427 33.5753ZM98.805 36.0959C100.226 37.2127 101.456 38.7285 102.481 40.6733L104.25 39.7408C103.117 37.5905 101.718 35.8413 100.041 34.5233L98.805 36.0959ZM102.489 40.6876C103.534 42.5958 104.35 44.9696 104.917 47.8306L106.878 47.4419C106.283 44.437 105.411 41.858 104.243 39.7265L102.489 40.6876ZM104.917 47.8306C105.482 50.6828 105.769 54.0597 105.769 57.9707H107.769C107.769 53.9683 107.475 50.4555 106.878 47.4419L104.917 47.8306ZM100.049 68.4297V56.6841H98.0493V68.4297H100.049ZM100.049 56.6841C100.049 53.9342 99.8811 51.499 99.5384 49.3853L97.5642 49.7055C97.8855 51.6869 98.0493 54.0108 98.0493 56.6841H100.049ZM99.5407 49.4003C99.2279 47.2677 98.7539 45.4123 98.1052 43.8495L96.258 44.6163C96.8268 45.9865 97.2659 47.6727 97.5619 49.6905L99.5407 49.4003ZM98.1052 43.8495C97.4551 42.2833 96.6106 40.9716 95.5539 39.946L94.1609 41.3812C94.9857 42.1817 95.6907 43.2496 96.258 44.6163L98.1052 43.8495ZM95.5645 39.9565C94.5437 38.9357 93.3471 38.1895 91.9843 37.7249L91.3389 39.6179C92.411 39.9834 93.3449 40.5653 94.1503 41.3707L95.5645 39.9565ZM92.0104 37.7342C90.6912 37.2433 89.2283 37.0073 87.6357 37.0073V39.0073C89.0315 39.0073 90.2525 39.2141 91.3129 39.6086L92.0104 37.7342ZM87.6357 37.0073C85.6817 37.0073 83.9083 37.378 82.3396 38.147L83.2199 39.9428C84.4735 39.3283 85.9375 39.0073 87.6357 39.0073V37.0073ZM82.354 38.1401C80.7564 38.8919 79.4324 40.0899 78.376 41.6897L80.0449 42.7918C80.9253 41.4586 81.9809 40.5261 83.2056 39.9497L82.354 38.1401ZM78.3688 41.7008C77.3419 43.3015 76.5873 45.3499 76.0735 47.8049L78.031 48.2146C78.5133 45.9106 79.1975 44.1129 80.0521 42.7807L78.3688 41.7008ZM76.0735 47.8049C75.557 50.2726 75.3052 53.237 75.3052 56.6841H77.3052C77.3052 53.3246 77.5514 50.5061 78.031 48.2146L76.0735 47.8049ZM75.3052 56.6841V68.4297H77.3052V56.6841H75.3052ZM75.3052 68.4297C75.3052 71.1766 75.4592 73.6202 75.7723 75.755L77.7511 75.4647C77.4555 73.4491 77.3052 71.106 77.3052 68.4297H75.3052ZM75.7743 75.7679C76.1156 77.9011 76.6178 79.7795 77.2918 81.3912L79.1369 80.6196C78.5381 79.1876 78.0719 77.469 77.7492 75.4519L75.7743 75.7679ZM77.2943 81.3972C77.9671 82.9769 78.8013 84.3143 79.811 85.3852L81.2662 84.0132C80.4497 83.1473 79.7344 82.0222 79.1344 80.6135L77.2943 81.3972ZM79.811 85.3852C80.8205 86.456 81.9935 87.2609 83.3252 87.7874L84.0605 85.9275C83.0127 85.5132 82.0828 84.8793 81.2662 84.0132L79.811 85.3852ZM83.3511 87.7972C84.6916 88.2846 86.151 88.5215 87.7188 88.5215V86.5215C86.3536 86.5215 85.1291 86.3156 84.0346 85.9176L83.3511 87.7972ZM87.7188 88.5215C89.7287 88.5215 91.536 88.1367 93.1119 87.3333L92.2035 85.5515C90.9572 86.1869 89.4719 86.5215 87.7188 86.5215V88.5215ZM93.1119 87.3333C94.7064 86.5204 96.0119 85.2632 97.0361 83.6064L95.335 82.5547C94.4777 83.9415 93.4313 84.9256 92.2035 85.5515L93.1119 87.3333ZM97.0335 83.6106C98.0847 81.9287 98.8389 79.8259 99.3252 77.3373L97.3623 76.9537C96.9078 79.2796 96.2232 81.1335 95.3375 82.5506L97.0335 83.6106ZM99.3256 77.3352C99.8115 74.82 100.049 71.8479 100.049 68.4297H98.0493C98.0493 71.7628 97.8168 74.6012 97.3619 76.9558L99.3256 77.3352Z" fill="black"/>
<defs>
<filter id="filter0_i_102_10" x="18.1997" y="31.7402" width="88.5693" height="66.0898" filterUnits="userSpaceOnUse" color-interpolation-filters="sRGB">
<feFlood flood-opacity="0" result="BackgroundImageFix"/>
<feBlend mode="normal" in="SourceGraphic" in2="BackgroundImageFix" result="shape"/>
<feColorMatrix in="SourceAlpha" type="matrix" values="0 0 0 0 0 0 0 0 0 0 0 0 0 0 0 0 0 0 127 0" result="hardAlpha"/>
<feOffset dy="4"/>
<feGaussianBlur stdDeviation="2"/>
<feComposite in2="hardAlpha" operator="arithmetic" k2="-1" k3="1"/>
<feColorMatrix type="matrix" values="0 0 0 0 0 0 0 0 0 0 0 0 0 0 0 0 0 0 0.25 0"/>
<feBlend mode="normal" in2="shape" result="effect1_innerShadow_102_10"/>
</filter>
<linearGradient id="paint0_linear_102_10" x1="64" y1="14" x2="64" y2="114" gradientUnits="userSpaceOnUse">
<stop offset="0.640625" stop-color="#A9DBFF"/>
<stop offset="1" stop-color="#41A4EC" stop-opacity="0"/>
</linearGradient>
</defs>
</svg>
