<svg width="32" height="32" viewBox="0 0 32 32" fill="none" xmlns="http://www.w3.org/2000/svg">
<circle cx="16" cy="16" r="15.5" fill="black" stroke="#575757" stroke-linecap="round" stroke-linejoin="round"/>
<g filter="url(#filter0_d_1_2)">
<mask id="path-2-inside-1_1_2" fill="white">
<path fill-rule="evenodd" clip-rule="evenodd" d="M13.1429 24H28V19.7143H23.0476L23.0476 9L18.0952 9V19.7143H13.1429V24Z"/>
</mask>
<path fill-rule="evenodd" clip-rule="evenodd" d="M13.1429 24H28V19.7143H23.0476L23.0476 9L18.0952 9V19.7143H13.1429V24Z" fill="url(#paint0_linear_1_2)"/>
<path d="M28 24V25H29V24H28ZM13.1429 24L12.1429 24V25L13.1429 25V24ZM28 19.7143H29V18.7143H28V19.7143ZM23.0476 19.7143H22.0476V20.7143H23.0476V19.7143ZM23.0476 9H24.0476V8H23.0476V9ZM18.0952 9L18.0952 8H17.0952L17.0952 9H18.0952ZM18.0952 19.7143V20.7143H19.0952V19.7143H18.0952ZM13.1429 19.7143V18.7143H12.1429V19.7143H13.1429ZM28 23H13.1429V25H28V23ZM27 19.7143V24H29V19.7143H27ZM23.0476 20.7143H28V18.7143H23.0476V20.7143ZM22.0476 9L22.0476 19.7143H24.0476L24.0476 9H22.0476ZM18.0952 10L23.0476 10V8H18.0952L18.0952 10ZM19.0952 19.7143V9H17.0952V19.7143H19.0952ZM13.1429 20.7143H18.0952V18.7143H13.1429V20.7143ZM14.1429 24V19.7143H12.1429V24L14.1429 24Z" fill="black" mask="url(#path-2-inside-1_1_2)"/>
<mask id="path-4-inside-2_1_2" fill="white">
<path fill-rule="evenodd" clip-rule="evenodd" d="M18.8571 9H4V13.2857H8.95238V24H13.9048V13.2857H18.8571V9Z"/>
</mask>
<path fill-rule="evenodd" clip-rule="evenodd" d="M18.8571 9H4V13.2857H8.95238V24H13.9048V13.2857H18.8571V9Z" fill="url(#paint1_linear_1_2)"/>
<path d="M4 9V8H3V9H4ZM18.8571 9H19.8571V8H18.8571V9ZM4 13.2857H3V14.2857H4V13.2857ZM8.95238 13.2857H9.95238V12.2857H8.95238V13.2857ZM8.95238 24H7.95238V25H8.95238V24ZM13.9048 24V25H14.9048V24H13.9048ZM13.9048 13.2857V12.2857H12.9048V13.2857H13.9048ZM18.8571 13.2857V14.2857H19.8571V13.2857H18.8571ZM4 10H18.8571V8H4V10ZM5 13.2857V9H3V13.2857H5ZM8.95238 12.2857H4V14.2857H8.95238V12.2857ZM9.95238 24V13.2857H7.95238V24H9.95238ZM13.9048 23H8.95238V25H13.9048V23ZM12.9048 13.2857V24H14.9048V13.2857H12.9048ZM18.8571 12.2857H13.9048V14.2857H18.8571V12.2857ZM17.8571 9V13.2857H19.8571V9H17.8571Z" fill="black" mask="url(#path-4-inside-2_1_2)"/>
</g>
<defs>
<filter id="filter0_d_1_2" x="0" y="9" width="32" height="23" filterUnits="userSpaceOnUse" color-interpolation-filters="sRGB">
<feFlood flood-opacity="0" result="BackgroundImageFix"/>
<feColorMatrix in="SourceAlpha" type="matrix" values="0 0 0 0 0 0 0 0 0 0 0 0 0 0 0 0 0 0 127 0" result="hardAlpha"/>
<feOffset dy="4"/>
<feGaussianBlur stdDeviation="2"/>
<feComposite in2="hardAlpha" operator="out"/>
<feColorMatrix type="matrix" values="0 0 0 0 0 0 0 0 0 0 0 0 0 0 0 0 0 0 0.25 0"/>
<feBlend mode="normal" in2="BackgroundImageFix" result="effect1_dropShadow_1_2"/>
<feBlend mode="normal" in="SourceGraphic" in2="effect1_dropShadow_1_2" result="shape"/>
</filter>
<linearGradient id="paint0_linear_1_2" x1="20.5714" y1="24" x2="20.5714" y2="9" gradientUnits="userSpaceOnUse">
<stop offset="0.760417" stop-color="#007DF0"/>
<stop offset="1" stop-color="#007DF0" stop-opacity="0"/>
</linearGradient>
<linearGradient id="paint1_linear_1_2" x1="11.4286" y1="9" x2="11.4286" y2="24" gradientUnits="userSpaceOnUse">
<stop offset="0.760417" stop-color="#007DF0"/>
<stop offset="1" stop-color="#007DF0" stop-opacity="0"/>
</linearGradient>
</defs>
</svg>
